HIERARCHY
ROOT Hips
{
 OFFSET 0.000000 0.000000 0.000000
 CHANNELS 6 Xposition Yposition Zposition Yrotation Xrotation Zrotation
 JOINT Chest
 {
  OFFSET 0.000000 9.585900 0.002600
  CHANNELS 3 Yrotation Xrotation Zrotation
  JOINT Chest2
  {
   OFFSET 0.000000 9.601200 -0.005300
   CHANNELS 3 Yrotation Xrotation Zrotation
   JOINT Chest3
   {
    OFFSET 0.000000 9.561800 0.000000
    CHANNELS 3 Yrotation Xrotation Zrotation
    JOINT Chest4
    {
     OFFSET 0.000000 9.552100 0.000000
     CHANNELS 3 Yrotation Xrotation Zrotation
     JOINT Neck
     {
      OFFSET 0.000000 14.453000 0.000000
      CHANNELS 3 Yrotation Xrotation Zrotation
      JOINT Head
      {
       OFFSET 0.000000 8.936500 -0.011300
       CHANNELS 3 Yrotation Xrotation Zrotation
       End Site
       {
        OFFSET 0.000000 17.073600 -0.006000
       }
      }
     }
     JOINT RightCollar
     {
      OFFSET -2.921100 9.558500 0.000000
      CHANNELS 3 Yrotation Xrotation Zrotation
      JOINT RightShoulder
      {
       OFFSET -13.519700 0.000000 0.000000
       CHANNELS 3 Yrotation Xrotation Zrotation
       JOINT RightElbow
       {
        OFFSET 0.000000 -29.696600 0.000000
        CHANNELS 3 Yrotation Xrotation Zrotation
        JOINT RightWrist
        {
         OFFSET 0.000000 -24.004700 0.000000
         CHANNELS 3 Yrotation Xrotation Zrotation
         End Site
         {
          OFFSET 0.000000 -17.728500 0.000000
         }
        }
       }
      }
     }
     JOINT LeftCollar
     {
      OFFSET 2.921100 9.558500 0.000000
      CHANNELS 3 Yrotation Xrotation Zrotation
      JOINT LeftShoulder
      {
       OFFSET 13.519700 0.000000 0.000000
       CHANNELS 3 Yrotation Xrotation Zrotation
       JOINT LeftElbow
       {
        OFFSET 0.000000 -29.696600 0.000000
        CHANNELS 3 Yrotation Xrotation Zrotation
        JOINT LeftWrist
        {
         OFFSET 0.000000 -24.004700 0.000000
         CHANNELS 3 Yrotation Xrotation Zrotation
         End Site
         {
          OFFSET 0.000000 -17.728500 0.000000
         }
        }
       }
      }
     }
    }
   }
  }
 }
 JOINT RightHip
 {
  OFFSET -7.771700 -0.012900 -0.001300
  CHANNELS 3 Yrotation Xrotation Zrotation
  JOINT RightKnee
  {
   OFFSET 0.000000 -40.869800 0.001200
   CHANNELS 3 Yrotation Xrotation Zrotation
   JOINT RightAnkle
   {
    OFFSET 0.000000 -39.717900 0.002100
    CHANNELS 3 Yrotation Xrotation Zrotation
    JOINT RightToe
    {
     OFFSET 0.000000 -4.965400 11.033500
     CHANNELS 3 Yrotation Xrotation Zrotation
     End Site
     {
      OFFSET 0.000000 -1.423100 5.872300
     }
    }
   }
  }
 }
 JOINT LeftHip
 {
  OFFSET 7.771700 -0.012900 -0.001300
  CHANNELS 3 Yrotation Xrotation Zrotation
  JOINT LeftKnee
  {
   OFFSET 0.000000 -40.869800 0.001200
   CHANNELS 3 Yrotation Xrotation Zrotation
   JOINT LeftAnkle
   {
    OFFSET 0.000000 -39.717900 0.002100
    CHANNELS 3 Yrotation Xrotation Zrotation
    JOINT LeftToe
    {
     OFFSET 0.000000 -4.965400 11.033500
     CHANNELS 3 Yrotation Xrotation Zrotation
     End Site
     {
      OFFSET 0.000000 -1.423100 5.872300
     }
    }
   }
  }
 }
}
MOTION
Frames: 13
Frame Time: 0.008333
0.000000 85.388000 0.000000 0.000000 -5.767877 0.000000 0.000000 11.653817 0.000000 0.000000 -5.885947 0.000000 0.000000 -0.000000 0.000000 0.000000 -0.000000 0.000000 0.000000 12.528835 0.000000 0.000000 0.711642 0.000000 0.000000 -0.000000 0.000000 0.000000 0.000000 -90.000000 0.000000 -2.309062 0.000000 0.000000 2.309062 0.000000 0.000000 -0.000000 0.000000 0.000000 -0.000000 90.000000 0.000000 -2.309062 0.000000 0.000000 2.309062 0.000000 0.000000 8.520406 0.000000 0.000000 1.905762 0.000000 -0.000000 -4.658285 0.000000 0.000000 -0.000000 0.000000 0.000000 8.520406 0.000000 0.000000 1.905762 0.000000 -0.000000 -4.658285 0.000000 0.000000 -0.000000 0.000000
-24.851593 57.944608 13.316453 177.764141 -48.688233 -3.588149 3.356825 21.607716 3.098395 1.696618 12.340053 1.583543 2.215621 15.471240 2.068274 1.734757 12.418139 1.600812 8.985265 19.449399 0.784319 16.217733 0.780965 -1.278836 -1.294597 8.438816 -1.831122 -36.180033 -9.395423 10.873853 -84.835942 -25.323024 96.035979 -13.448572 -28.742710 -33.054524 -7.003035 6.053882 2.510077 30.433817 -11.880555 -9.318745 87.335612 -22.703698 -82.611518 21.579060 -29.331659 18.687963 2.093623 -23.036530 -3.109237 -33.732032 73.312823 -37.697786 6.339818 -13.536980 11.195887 0.019169 -0.050940 -0.021201 -4.287367 -20.461062 6.919114 87.912811 84.035767 87.576307 0.038489 -22.398544 -16.188171 0.006490 0.024093 0.005560
-24.848879 57.945290 13.316902 177.760117 -48.709064 -3.595599 3.349002 21.595664 3.093888 1.692240 12.327281 1.585351 2.203696 15.451771 2.062764 1.735442 12.431474 1.599226 9.082637 19.521290 0.821314 16.375555 0.932767 -1.230298 -1.271201 8.516966 -1.745218 -36.059458 -9.508140 10.932804 -84.842018 -25.303583 96.110369 -13.404223 -28.864977 -33.351440 -6.993196 6.119664 2.490166 30.364506 -11.901274 -9.346866 87.390080 -22.642834 -82.723966 21.577259 -29.453354 19.057180 2.085146 -23.016526 -3.101947 -33.716647 73.311808 -37.677155 6.343804 -13.533041 11.200712 0.019347 -0.054594 -0.027241 -4.278171 -20.440866 6.927376 87.906911 84.039381 87.580927 0.043555 -22.397657 -16.193067 0.008417 0.022650 0.006484
-24.846970 57.946123 13.316680 177.753058 -48.735364 -3.593061 3.341062 21.581474 3.086592 1.683631 12.320008 1.583295 2.198688 15.444147 2.059674 1.712414 12.377714 1.592182 9.196574 19.652018 0.868034 16.529621 1.090192 -1.178840 -1.218601 8.630620 -1.663269 -35.865090 -9.632030 10.949704 -84.891565 -25.289532 96.158126 -13.370806 -28.975650 -33.618205 -6.957250 6.232534 2.471618 30.242891 -11.945664 -9.354435 87.449608 -22.573805 -82.808193 21.575679 -29.551281 19.403444 2.075143 -22.992544 -3.110074 -33.686360 73.315315 -37.637465 6.337360 -13.526105 11.214400 0.027379 -0.058806 -0.041243 -4.263957 -20.415636 6.927450 87.911217 84.037435 87.594169 0.040289 -22.396390 -16.194908 0.008795 0.019660 0.005997
-24.843945 57.947156 13.315733 177.737883 -48.765955 -3.588226 3.316391 21.539380 3.073065 1.696303 12.345642 1.586546 2.194135 15.437076 2.055817 1.706445 12.371469 1.588092 9.288420 19.737102 0.907894 16.675214 1.249300 -1.123612 -1.167515 8.667711 -1.582460 -35.617065 -9.757691 10.920780 -84.965258 -25.283261 96.181452 -13.342337 -29.075574 -33.868494 -7.018116 6.225978 2.406550 30.148552 -11.977820 -9.264894 87.503791 -22.508244 -82.869516 21.580352 -29.631452 19.727744 2.056058 -22.963867 -3.122475 -33.600605 73.327257 -37.535288 6.344541 -13.523733 11.185382 0.022321 -0.057236 -0.043490 -4.237731 -20.385592 6.927847 87.914901 84.036620 87.612302 0.043032 -22.396721 -16.194732 0.001468 0.018502 0.003602
-24.840900 57.950816 13.311520 177.703777 -48.820102 -3.566218 3.317894 21.542376 3.070817 1.697932 12.350858 1.585141 2.195443 15.442188 2.051892 1.715222 12.397591 1.586323 9.355103 19.776652 0.943878 16.808055 1.406243 -1.066414 -1.123305 8.630931 -1.500120 -35.340005 -9.883608 10.847108 -85.037324 -25.281160 96.180642 -13.310586 -29.169694 -34.115804 -7.088717 6.161650 2.357450 30.017703 -12.020623 -9.158196 87.548872 -22.449181 -82.916422 21.591073 -29.698031 20.030782 2.075406 -22.911107 -3.120059 -33.598411 73.327198 -37.523212 6.340868 -13.519862 11.180578 0.021900 -0.061927 -0.027257 -4.198920 -20.330856 6.924500 87.929435 84.036609 87.638639 0.048469 -22.392220 -16.195545 -0.008530 0.010306 0.001062
-24.837382 57.950027 13.310165 177.694554 -48.838067 -3.564933 3.307580 21.525862 3.073366 1.694986 12.345481 1.583952 2.206814 15.469416 2.047948 1.697782 12.350616 1.584416 9.433480 19.864218 0.988460 16.926475 1.558368 -1.009867 -1.050948 8.621614 -1.422312 -35.056655 -10.009361 10.733973 -85.089612 -25.278256 96.159951 -13.271767 -29.260429 -34.363838 -7.139109 6.147215 2.307921 29.857167 -12.084456 -9.041087 87.596098 -22.391528 -82.956825 21.604885 -29.750238 20.309788 2.061795 -22.895277 -3.124975 -33.557393 73.339167 -37.473416 6.356213 -13.528506 11.177170 0.018905 -0.058557 -0.036836 -4.181819 -20.313887 6.929142 87.965086 84.038786 87.686067 0.051449 -22.397184 -16.198050 -0.003926 0.011007 0.000613
-24.832998 57.950768 13.306423 177.717944 -48.865704 -3.592192 3.281169 21.527471 3.082344 1.691694 12.339671 1.583626 2.200904 15.455681 2.045706 1.681231 12.310036 1.589671 9.501124 19.977155 1.013614 17.036958 1.710516 -0.946269 -0.993525 8.672379 -1.402298 -34.754534 -10.150872 10.644140 -85.113641 -25.273410 96.126263 -13.228748 -29.344150 -34.606918 -7.185746 6.152347 2.238277 29.674349 -12.161340 -8.904016 87.658071 -22.337314 -82.995732 21.621293 -29.791854 20.558698 2.004483 -22.869541 -3.135479 -33.497600 73.359618 -37.398731 6.384286 -13.568882 11.139490 0.010258 -0.029192 -0.034185 -4.190835 -20.286348 6.939599 88.014899 84.044491 87.743736 0.053161 -22.395476 -16.199316 -0.000509 0.004542 0.000372
-24.830416 57.950050 13.302680 177.703802 -48.881624 -3.580534 3.276583 21.523996 3.080007 1.688413 12.332843 1.584225 2.178161 15.407936 2.050768 1.704216 12.374677 1.573093 9.544397 20.019698 1.051928 17.116915 1.850667 -0.893740 -0.890946 8.572624 -1.304582 -34.498785 -10.268157 10.447198 -85.112217 -25.269155 96.083819 -13.188968 -29.415403 -34.834588 -7.257880 6.076323 2.192710 29.467021 -12.250632 -8.754078 87.745342 -22.293767 -83.036191 21.637133 -29.827189 20.774205 1.991940 -22.856836 -3.142738 -33.470350 73.369630 -37.374337 6.395712 -13.575754 11.129763 0.005502 -0.028271 -0.033165 -4.170196 -20.269432 6.937769 88.026029 84.049551 87.763786 0.055151 -22.399568 -16.198913 -0.004041 0.006139 -0.000524
-24.827342 57.948186 13.299090 177.685354 -48.885495 -3.569177 3.277096 21.516043 3.082161 1.685052 12.324630 1.586113 2.173876 15.397650 2.053016 1.698058 12.364570 1.568765 9.596929 20.100995 1.095648 17.164274 1.978122 -0.854056 -0.764188 8.497195 -1.217285 -34.249991 -10.387176 10.227020 -85.092889 -25.263378 96.034804 -13.159524 -29.472211 -35.036580 -7.321754 6.025263 2.130377 29.231951 -12.352619 -8.597695 87.868395 -22.269357 -83.080702 21.649446 -29.856331 20.957018 1.978637 -22.857745 -3.145431 -33.451319 73.379943 -37.356372 6.402447 -13.582853 11.118642 0.010147 -0.025168 -0.037530 -4.157232 -20.265544 6.941778 88.093861 84.058760 87.832706 0.057641 -22.407216 -16.196389 -0.000312 0.004963 -0.001462
-24.824232 57.945736 13.295302 177.677550 -48.881038 -3.566753 3.274840 21.507303 3.086940 1.682025 12.317823 1.587879 2.167896 15.383662 2.058894 1.682978 12.323508 1.583724 9.620771 20.188879 1.089560 17.205343 2.111644 -0.789898 -0.645971 8.469501 -1.176363 -33.985062 -10.521002 10.015054 -85.064500 -25.249142 95.980723 -13.141956 -29.521458 -35.207149 -7.344441 6.041816 2.062147 28.939992 -12.501043 -8.482131 88.033501 -22.274821 -83.128172 21.655021 -29.877001 21.114148 1.956384 -22.866931 -3.146046 -33.439680 73.390424 -37.343352 6.407855 -13.590644 11.102688 0.011461 -0.023365 -0.033568 -4.148657 -20.267226 6.947592 88.160806 84.072770 87.902399 0.074045 -22.419644 -16.197195 -0.003058 0.008164 -0.002144
-24.821929 57.943819 13.290437 177.673336 -48.877920 -3.562721 3.274036 21.502681 3.093737 1.675730 12.309134 1.589939 2.165364 15.383285 2.053692 1.682789 12.326797 1.580075 9.631789 20.213444 1.105751 17.215137 2.234420 -0.729023 -0.533652 8.384528 -1.109595 -33.713332 -10.658012 9.790233 -85.038128 -25.222952 95.926279 -13.130324 -29.568720 -35.353958 -7.378124 6.003075 2.031795 28.623435 -12.664252 -8.374919 88.236827 -22.322680 -83.174820 21.649760 -29.886452 21.253705 1.934283 -22.873854 -3.147033 -33.413097 73.398865 -37.328488 6.402404 -13.589714 11.107487 0.013623 -0.027196 -0.038101 -4.141018 -20.267876 6.949084 88.206136 84.080690 87.951623 0.077188 -22.430616 -16.195430 -0.002181 0.011081 -0.003590
-24.821278 57.939785 13.286876 177.651329 -48.857042 -3.536535 3.281005 21.480219 3.093808 1.666762 12.298812 1.592100 2.164020 15.385344 2.044482 1.674611 12.306846 1.590695 9.643584 20.275977 1.125361 17.189347 2.339861 -0.686308 -0.415847 8.326118 -1.065791 -33.435419 -10.797656 9.559522 -85.015237 -25.184891 95.875550 -13.118021 -29.614396 -35.487360 -7.480768 5.863533 1.918377 28.336174 -12.759712 -8.170144 88.467959 -22.425122 -83.214817 21.633205 -29.884726 21.374336 1.939783 -22.896419 -3.158704 -33.403007 73.404502 -37.319540 6.400255 -13.569672 11.099048 0.020772 -0.050165 -0.029589 -4.124063 -20.290978 6.942231 88.247125 84.083713 87.994270 0.081151 -22.447509 -16.192777 -0.001372 0.025000 -0.007826
